# xmcd CD database file
#
# Track frame offsets:
#	150
#	12802
#	30655
#	39204
#	49992
#	61554
#	81548
#	99442
#	109811
#	126987
#	135918
#	150712
#	159588
#	174819
#
# Disc length: 2487 seconds
#
# Revision: 0
# Processed by: cddbd v1.5.2PL0 Copyright (c) Steve Scherf et al.
# Submitted via: CDex 1.70beta2
#
DISCID=a309b50e
DTITLE=Curtis Jones - Curtis Jones In London
DYEAR=1964
DGENRE=Blues
TTITLE0=Shake It Baby
TTITLE1=Syl-Vous Play Blues
TTITLE2=Young Generation Boogie
TTITLE3=Skid Row
TTITLE4=The Honeydripper
TTITLE5=Lonesome Bedroom Blues
TTITLE6=Alley Bound Blues
TTITLE7=Curtis Jones Boogie
TTITLE8=Dust My Broom
TTITLE9=Red River Blues
TTITLE10=Good Woman Blues
TTITLE11=Please Send Me Someone To Love
TTITLE12=You Got Good Business
TTITLE13=Roll Me Over
EXTD=YEAR: 1964
EXTT0=
EXTT1=
EXTT2=
EXTT3=
EXTT4=
EXTT5=
EXTT6=
EXTT7=
EXTT8=
EXTT9=
EXTT10=
EXTT11=
EXTT12=
EXTT13=
PLAYORDER=
